<svg width="353" height="26" viewBox="0 0 353 26" fill="none" xmlns="http://www.w3.org/2000/svg">
<g clip-path="url(#clip0_3001_2781)">
<path d="M74.58 26.01L77.33 15.31H57.69L54.93 26.01H47.06L53.76 0H61.63L59.15 9.64H78.79L81.27 0H89.19L82.49 26.01H74.58Z" fill="#231F20"/>
<path d="M88.28 26.01L94.98 0H125.52L124.14 5.39H101.45L100.32 9.78H113.56L112.18 15.17H98.94L97.65 20.17H120.6L119.09 26.01H88.28Z" fill="#231F20"/>
<path d="M125.07 26.01L131.77 0H162.32L160.93 5.39H138.25L137.12 9.78H150.36L148.97 15.17H135.73L134.44 20.17H157.4L155.89 26.01H125.07Z" fill="#231F20"/>
<path d="M160.07 26.01L166.76 0H174.63L169.43 20.17H190.95L189.44 26.01H160.07Z" fill="#231F20"/>
<path d="M280.28 26.01C277.3 26.01 275.42 25.54 274.53 24.59C273.61 23.61 273.48 21.91 274.12 19.41L277.49 6.32001C278.11 3.94001 279.08 2.27001 280.38 1.36001C281.68 0.45001 283.74 0.0100098 286.67 0.0100098H307.78C310.76 0.0100098 312.64 0.48001 313.53 1.45001C314.44 2.44001 314.58 4.13001 313.93 6.62001L310.56 19.71C309.93 22.14 308.99 23.77 307.67 24.68C306.37 25.58 304.31 26.02 301.38 26.02H280.27L280.28 26.01ZM302.61 20.17L306.36 5.60001H285.55L281.8 20.17H302.61Z" fill="#EA0029"/>
<path d="M351.98 6.18C352.56 3.91 352.37 2.34 351.39 1.36C350.45 0.44 348.59 0 345.72 0H329.44C326.51 0 324.45 0.44 323.15 1.35C321.85 2.26 320.88 3.93 320.26 6.31L319.55 9.06C318.91 11.54 319.04 13.23 319.95 14.22C320.83 15.18 322.71 15.65 325.7 15.65H342.84L341.68 20.16H322.6L323.39 17.08L315.99 18.35L315.72 19.39C315.08 21.88 315.22 23.57 316.14 24.56C317.03 25.52 318.93 25.99 321.92 25.99H339.64C342.59 25.99 344.67 25.55 345.97 24.64C347.28 23.74 348.26 22.07 348.87 19.68L349.75 16.27C350.39 13.79 350.25 12.09 349.33 11.1C348.44 10.14 346.55 9.67 343.54 9.67H326.4L327.48 5.49H345.07L344.3 8.47L351.97 6.16L351.98 6.18Z" fill="#EA0029"/>
<path d="M24.75 26.01C23.25 26.01 22 25.88 21.03 25.64C19.94 25.89 18.63 26.01 17.13 26.01H6.55003C3.57003 26.01 1.69003 25.55 0.80003 24.59C-0.11997 23.6 -0.24997 21.91 0.39003 19.41L3.77003 6.31001C4.38003 3.93001 5.36003 2.26001 6.66003 1.35001C7.88003 0.50001 9.79003 0.0700098 12.51 0.0200098H13.27L8.07003 20.17H18.35L22 6.01001H29.92L26.27 20.17H36.55L41.74 0.0100098H42.2C44.93 0.0700098 46.65 0.53001 47.48 1.44001C48.39 2.43001 48.52 4.12001 47.88 6.61001L44.51 19.71C43.88 22.14 42.94 23.77 41.62 24.68C40.31 25.58 38.26 26.02 35.33 26.02H24.75V26.01Z" fill="#231F20"/>
<path d="M198.64 26.01L202.54 10.88H224.55C225.85 10.89 226.47 10.7 226.75 10.54C227.1 10.34 227.36 9.93002 227.51 9.36002L228.2 6.71002C228.27 6.44002 228.36 5.95002 228.14 5.78002C228.05 5.71002 227.67 5.48002 226.24 5.48002H203.93L205.34 0.0200195H230.31C232.76 0.0200195 234.42 0.44002 235.36 1.32002C236.35 2.22002 236.6 3.65002 236.11 5.56002L234.68 11.11C234.21 12.93 233.29 14.28 231.95 15.11C230.65 15.92 228.78 16.34 226.4 16.34H208.89L206.39 26.03H198.63L198.64 26.01Z" fill="#EA0029"/>
<path d="M259.26 26.01L250.12 16.62H244.49L242.07 26.01H234.31L238.12 11.23H260.14C261.45 11.22 262.06 11.02 262.34 10.86C262.71 10.65 262.96 10.26 263.11 9.68L263.88 6.69C263.95 6.42 264.04 5.93 263.82 5.76C263.73 5.69 263.35 5.46 261.93 5.46H239.62L241.03 0H266C268.45 0 270.11 0.42 271.05 1.3C272.04 2.2 272.29 3.63 271.8 5.54L270.3 11.37C269.84 13.18 268.92 14.53 267.57 15.38C266.25 16.21 264.43 16.62 262.02 16.62H259.82L270.64 26.01H259.28H259.26Z" fill="#EA0029"/>
</g>
<defs>
<clipPath id="clip0_3001_2781">
<rect width="352.31" height="26.01" fill="white"/>
</clipPath>
</defs>
</svg>
